{
  "title": "Big.Hero.6.2014.1080p.WEB-DL.DD5.1.H264-RARBG",
  "uid": 11679832,
  "size": 3270224841,
  "categoryP": "video",
  "categoryS": "hd___movies",
  "magnet": "?xt=urn:btih:25958ca002a58c81f0ee49c12a105d5c77431b35&amp;dn=Big.Hero.6.2014.1080p.WEB-DL.DD5.1.H264-RARBG&amp;tr=udp%3A%2F%2Ftracker.openbittorrent.com%3A80&amp;tr=udp%3A%2F%2Fopen.demonii.com%3A1337&amp;tr=udp%3A%2F%2Ftracker.coppersurfer.tk%3A6969&amp;tr=udp%3A%2F%2Fexodus.desync.com%3A6969",
  "seeders": 615,
  "leechers": 160,
  "uploader": "Anon_up",
  "files": 5,
  "time": 1423033556,
  "description": "Screenshots :\n\n\nVideo\nID                                       : 1\nFormat                                   : AVC\nFormat/Info                              : Advanced Video Codec\nFormat profile                           : &lt;a class=&quot;__cf_email__&quot; href=&quot;/cdn-cgi/l/email-protection&quot; data-cfemail=&quot;a1e9c8c6c9e1ed958f91&quot;&gt;[email&amp;#160;protected]&lt;/a&gt;&lt;script cf-hash='f9e31' type=&quot;text/javascript&quot;&gt;\n/* &lt;![CDATA[ */!function(){try{var t=&quot;currentScript&quot;in document?document.currentScript:function(){for(var t=document.getElementsByTagName(&quot;script&quot;),e=t.length;e--;)if(t[e].getAttribute(&quot;cf-hash&quot;))return t[e]}();if(t&amp;&amp;t.previousSibling){var e,r,n,i,c=t.previousSibling,a=c.getAttribute(&quot;data-cfemail&quot;);if(a){for(e=&quot;&quot;,r=parseInt(a.substr(0,2),16),n=2;a.length-n;n+=2)i=parseInt(a.substr(n,2),16)^r,e+=String.fromCharCode(i);e=document.createTextNode(e),c.parentNode.replaceChild(e,c)}}}catch(u){}}();/* ]]&gt; */&lt;/script&gt;\nFormat settings, CABAC                   : Yes\nFormat settings, ReFrames                : 5 frames\nCodec ID                                 : V_MPEG4/ISO/AVC\nDuration                                 : 1h 41mn\nBit rate                                 : 3 810 Kbps\nWidth                                    : 1 916 pixels\nHeight                                   : 800 pixels\nDisplay aspect ratio                     : 2.40:1\nFrame rate mode                          : Constant\nFrame rate                               : 23.976 fps\nColor space                              : YUV\nChroma subsampling                       : 4:2:0\nBit depth                                : 8 bits\nScan type                                : Progressive\nBits/(Pixel*Frame)                       : 0.104\nStream size                              : 2.71 GiB (89%)\nTitle                                    : Big.Hero.6.2014.1080p.WEB-DL.DD5.1.H264-RARBG\nLanguage                                 : English\nDefault                                  : Yes\nForced                                   : No\nColor primaries                          : BT.709\nTransfer characteristics                 : BT.709\nMatrix coefficients                      : BT.709\nColor range                              : Limited\n\nAudio\nID                                       : 2\nFormat                                   : AC-3\nFormat/Info                              : Audio Coding 3\nMode extension                           : CM (complete main)\nFormat settings, Endianness              : Big\nCodec ID                                 : A_AC3\nDuration                                 : 1h 41mn\nBit rate mode                            : Constant\nBit rate                                 : 384 Kbps\nChannel(s)                               : 6 channels\nChannel positions                        : Front: L C R, Side: L R, LFE\nSampling rate                            : 48.0 KHz\nBit depth                                : 16 bits\nCompression mode                         : Lossy\nStream size                              : 280 MiB (9%)\nTitle                                    : Big.Hero.6.2014.1080p.WEB-DL.DD5.1.H264-RARBG\nLanguage                                 : English\nDefault                                  : Yes\nForced                                   : No\n\nText\nID                                       : 3\nFormat                                   : UTF-8\nCodec ID                                 : S_TEXT/UTF8\nCodec ID/Info                            : UTF-8 Plain Text\nLanguage                                 : English\nDefault                                  : Yes\nForced                                   : No\n\nMenu\n00:00:00.000                             : en:Hustle\n00:07:16.000                             : en:Nerd School\n00:14:38.000                             : en:Showcase\n00:21:50.000                             : en:Tragedy\n00:24:33.000                             : en:A New Friend\n00:29:35.000                             : en:Being Helpful\n00:36:59.000                             : en:Upgrade\n00:44:19.000                             : en:The Chase\n00:50:50.000                             : en:Fred's House\n00:54:33.000                             : en:Training\n01:00:45.000                             : en:Secret Lair\n01:07:13.000                             : en:Big Reveal\n01:11:55.000                             : enutting It All Together\n01:16:27.000                             : en:Saves The Day!\n01:24:45.000                             : en:The Portal\n01:31:56.000                             : en:End Credits\n\n\nCredits to Creators ,iTunes &amp; RARBG\n\nUploader Notes : Everyone else is enjoying this awesome movie\ny to leave TPB alone..\nIts legit..get it..check HASH",
  "parsed": {
    "xt": "urn:btih:25958ca002a58c81f0ee49c12a105d5c77431b35",
    "dn": "Big.Hero.6.2014.1080p.WEB-DL.DD5.1.H264-RARBG",
    "tr": [
      "udp://exodus.desync.com:6969",
      "udp://open.demonii.com:1337",
      "udp://tracker.coppersurfer.tk:6969",
      "udp://tracker.openbittorrent.com:80"
    ],
    "infoHash": "25958ca002a58c81f0ee49c12a105d5c77431b35",
    "infoHashBuffer": {
      "type": "Buffer",
      "data": [
        37,
        149,
        140,
        160,
        2,
        165,
        140,
        129,
        240,
        238,
        73,
        193,
        42,
        16,
        93,
        92,
        119,
        67,
        27,
        53
      ]
    },
    "name": "Big.Hero.6.2014.1080p.WEB-DL.DD5.1.H264-RARBG",
    "announce": [
      "udp://exodus.desync.com:6969",
      "udp://open.demonii.com:1337",
      "udp://tracker.coppersurfer.tk:6969",
      "udp://tracker.openbittorrent.com:80"
    ],
    "urlList": []
  },
  "previous": 775,
  "peers": 61,
  "last_updated": "2016-12-24T20:03:22.020Z"
}